<?xml version="1.0" encoding="UTF-8"?>
<svg id="Layer_1" data-name="Layer 1" xmlns="http://www.w3.org/2000/svg" viewBox="0 0 1714.07 781.53">
  <defs>
    <style>
      .cls-1 {
        fill: #f26a35;
      }

      .cls-2 {
        fill: #03273a;
      }
    </style>
  </defs>
  <polygon class="cls-2" points="62.69 467.68 0 467.68 0 414.84 182.8 414.84 182.8 467.68 119.76 467.68 119.76 645.2 62.69 645.2 62.69 467.68"/>
  <g>
    <path class="cls-2" d="M198.28,414.84h93.35c60.92,0,88.05,33.11,88.05,78.9,0,32.4-13.73,58.82-43.32,71.15l51.77,80.31h-67.63l-40.86-72.21h-24.31v72.21h-57.06v-230.36ZM292.33,520.16c22.9,0,29.6-11.27,29.6-26.42s-6.71-26.06-29.6-26.06h-36.98v52.48h36.98Z"/>
    <rect class="cls-2" x="400.1" y="414.84" width="57.06" height="230.36"/>
    <rect class="cls-2" x="471.25" y="524.03" width="105.67" height="51.07"/>
    <path class="cls-2" d="M578.67,577.21h55.65c0,14.46,8.81,23.6,31,23.6s31-9.15,31-23.6-17.61-18.67-38.75-22.54c-32.75-5.98-74.67-13.73-74.67-69.73,0-43.67,33.11-74.67,82.77-74.67s81.02,29.23,82.77,72.9h-53.54c-.35-13.38-8.79-23.94-28.52-23.94s-28.54,11.62-28.54,23.6c0,15.15,17.62,18.67,39.1,22.54,33.11,5.98,75.02,13.73,75.02,69.73,0,45.79-34.52,74.67-86.65,74.67s-85.59-27.82-86.65-72.56"/>
    <path class="cls-2" d="M763.93,552.91v-138.07h57.06v138.07c0,28.17,13.04,44.02,41.21,44.02s41.92-15.48,41.92-44.02v-138.07h55.65v138.07c0,59.17-34.86,96.86-97.21,96.86s-98.63-37.34-98.63-96.86"/>
    <path class="cls-2" d="M983.73,414.84h90.52c62.69,0,90.52,34.17,90.52,81.01s-27.83,81.36-90.52,81.36h-33.46v68h-57.06v-230.36ZM1075.31,524.39c24.3,0,31.69-11.98,31.69-28.54s-7.4-28.17-31.69-28.17h-34.52v56.71h34.52Z"/>
    <path class="cls-2" d="M1178.14,414.84h90.52c62.71,0,90.52,34.17,90.52,81.01s-27.82,81.36-90.52,81.36h-33.46v68h-57.06v-230.36ZM1269.72,524.39c24.31,0,31.71-11.98,31.71-28.54s-7.4-28.17-31.71-28.17h-34.52v56.71h34.52Z"/>
    <polygon class="cls-2" points="1372.56 414.84 1429.62 414.84 1429.62 592.37 1538.46 592.37 1538.46 645.2 1372.56 645.2 1372.56 414.84"/>
    <polygon class="cls-2" points="1571.21 549.74 1487.02 414.84 1554.31 414.84 1599.73 495.85 1645.17 414.84 1711.05 414.84 1628.28 547.99 1628.28 645.2 1571.21 645.2 1571.21 549.74"/>
    <path class="cls-1" d="M1508.33,340.82l-67.46-75.38.63-212.05h-119.47l-.43,78.77L1203.33,0l-179.3,205.23-68.72-75.05-173.34,193.14c-7.86,8.76-7.75,22.85.23,31.46,7.99,8.63,20.85,8.51,28.71-.26l144.68-161.22,172.73,188.66c3.96,4.33,9.14,6.49,14.33,6.49s10.41-2.18,14.37-6.54c7.92-8.7,7.9-22.79-.05-31.46l-104.18-113.81,150.89-172.71,275.66,308.06c3.97,4.44,9.23,6.67,14.48,6.67s10.26-2.12,14.22-6.37c8-8.6,8.12-22.69.27-31.46M1362.38,97.89h38.38l-.35,123.57-38.46-44.2.43-79.37Z"/>
    <path class="cls-2" d="M12.4,709.27c3.8,0,10.72.29,15.76,4.34,2.17,1.63,6.19,5.87,6.19,14.23,0,3.41-.71,9.38-6.8,13.5,9.6,2.39,13.11,10.74,13.11,17.35s-3.31,11.96-7.02,14.86c-5.48,4.34-11.77,4.53-16.52,4.53H0v-68.8h12.4ZM7.65,739.48h5.77c4.02,0,13.52-.83,13.52-11.45,0-11.35-11.16-11.55-13.33-11.55h-5.97v23ZM7.65,770.85h8.77c4.43,0,8.77-.32,12.06-2.9,2.68-1.97,4.53-5.36,4.53-9.48,0-5.48-3.19-8.67-5.87-10.14-2.58-1.44-6.19-2.05-11.65-2.05h-7.85v24.56Z"/>
    <path class="cls-2" d="M57.25,751.46c0,5.77,0,12.06,5.46,16.71,2.78,2.36,7.53,3.9,11.35,3.9s8.55-1.53,11.35-3.9c5.46-4.65,5.46-10.94,5.46-16.71v-42.2h7.62v44.24c0,5.77-.61,11.35-4.31,16.52-4.14,5.65-11.35,9.28-20.12,9.28s-15.98-3.63-20.12-9.28c-3.7-5.17-4.34-10.74-4.34-16.52v-44.24h7.65v42.2Z"/>
    <rect class="cls-2" x="111.19" y="709.27" width="7.65" height="68.8"/>
    <polygon class="cls-2" points="139.08 709.27 139.08 770.85 158.06 770.85 158.06 778.07 131.46 778.07 131.46 709.27 139.08 709.27"/>
    <path class="cls-2" d="M163.28,709.27h14.03c6.89,0,16.71.71,25.36,8.04,6.31,5.26,11.77,14.03,11.77,26.41,0,14.45-7.11,22.17-12.06,26.41-6.31,5.36-12.91,7.94-25.17,7.94h-13.93v-68.8ZM170.9,770.85h6.7c5.48,0,13.01-.63,19.71-6.19,5.16-4.34,9.28-11.16,9.28-20.95,0-16.52-11.55-27.24-28.99-27.24h-6.7v54.38Z"/>
    <polygon class="cls-2" points="259.09 716.48 231.05 716.48 231.05 736.89 258.29 736.89 258.29 744.13 231.05 744.13 231.05 770.85 259.09 770.85 259.09 778.07 223.4 778.07 223.4 709.27 259.09 709.27 259.09 716.48"/>
    <path class="cls-2" d="M279.09,709.27c4.65,0,11.55.29,16.71,3.8,4.02,2.68,7.53,7.94,7.53,15.28,0,10.52-6.92,18.25-17.32,18.98l21.85,30.74h-9.28l-20.93-30.11h-1.97v30.11h-7.62v-68.8h11.04ZM275.68,741.13h4.85c9.5,0,15.18-4.53,15.18-12.57,0-3.83-1.14-7.65-5.48-10.14-3.09-1.75-6.6-1.95-9.89-1.95h-4.65v24.65Z"/>
    <path class="cls-2" d="M345.5,722.86c-.93-1.85-2.46-3.9-4.02-5.14-1.34-1.05-3.83-2.36-7.72-2.36-6.82,0-11.57,4.22-11.57,10.62,0,2.68.73,4.22,2.58,5.97,2.07,2.07,4.65,3.19,7.23,4.34l6.6,2.9c4.02,1.75,7.72,3.6,10.62,6.48,3.51,3.51,4.95,7.55,4.95,12.5,0,12.69-9.38,21.15-21.78,21.15-4.53,0-10.21-.93-14.96-5.58-3.39-3.29-5.46-8.04-6.38-12.18l7.43-2.05c.51,3.6,2.17,6.7,4.12,8.77,3,2.97,6.41,3.8,9.92,3.8,9.38,0,13.81-6.7,13.81-13.59,0-3.12-.92-5.8-3.41-8.06-1.95-1.85-4.63-3.09-8.23-4.75l-6.19-2.88c-2.7-1.24-6.09-2.68-9.18-5.68-3-2.9-4.75-6.09-4.75-11.23,0-10.65,8.14-17.76,19.3-17.76,4.21,0,7.62.83,11.04,3.09,2.78,1.85,5.17,4.65,6.7,7.65l-6.09,3.99Z"/>
    <polygon class="cls-2" points="495.11 736.5 530.39 736.5 530.39 708.56 538.01 708.56 538.01 777.36 530.39 777.36 530.39 743.71 495.11 743.71 495.11 777.36 487.46 777.36 487.46 708.56 495.11 708.56 495.11 736.5"/>
    <path class="cls-2" d="M547,743.01c0-20.54,15.98-35.59,35.79-35.59s35.81,15.06,35.81,35.59-15.88,35.59-35.81,35.59-35.79-15.18-35.79-35.59M554.85,743.01c0,15.79,12.47,28.38,27.94,28.38s27.97-12.6,27.97-28.38-12.5-28.38-27.97-28.38-27.94,12.6-27.94,28.38"/>
    <polygon class="cls-2" points="625.23 777.36 636.68 704.74 663.09 762.82 690.01 704.64 700.75 777.36 692.91 777.36 686.4 729.49 662.99 780.26 639.87 729.49 633.08 777.36 625.23 777.36"/>
    <polygon class="cls-2" points="747.31 715.77 719.24 715.77 719.24 736.21 746.48 736.21 746.48 743.42 719.24 743.42 719.24 770.12 747.31 770.12 747.31 777.36 711.62 777.36 711.62 708.56 747.31 708.56 747.31 715.77"/>
    <path class="cls-2" d="M752.52,743.01c0-20.54,16.01-35.59,35.81-35.59s35.79,15.06,35.79,35.59-15.88,35.59-35.79,35.59-35.81-15.18-35.81-35.59M760.37,743.01c0,15.79,12.5,28.38,27.97,28.38s27.94-12.6,27.94-28.38-12.47-28.38-27.94-28.38-27.97,12.6-27.97,28.38"/>
    <polygon class="cls-2" points="831.38 708.56 849.53 760.14 871.09 705.05 891.51 760.14 911.63 708.56 920.08 708.56 891.22 780.96 871 725.88 849.34 780.96 822.93 708.56 831.38 708.56"/>
    <polygon class="cls-2" points="924.79 777.36 924.79 705.66 978.43 761.89 978.43 708.56 986.08 708.56 986.08 780.45 932.44 724.23 932.44 777.36 924.79 777.36"/>
    <polygon class="cls-2" points="1034.47 715.77 1006.42 715.77 1006.42 736.21 1033.66 736.21 1033.66 743.42 1006.42 743.42 1006.42 770.12 1034.47 770.12 1034.47 777.36 998.77 777.36 998.77 708.56 1034.47 708.56 1034.47 715.77"/>
    <path class="cls-2" d="M1054.47,708.56c4.65,0,11.55.32,16.71,3.8,4.02,2.7,7.53,7.97,7.53,15.28,0,10.52-6.92,18.27-17.32,18.98l21.85,30.74h-9.28l-20.93-30.14h-1.97v30.14h-7.62v-68.8h11.04ZM1051.06,740.43h4.85c9.5,0,15.18-4.53,15.18-12.59,0-3.8-1.15-7.63-5.48-10.09-3.09-1.75-6.6-1.97-9.89-1.97h-4.65v24.65Z"/>
    <path class="cls-2" d="M1120.88,722.18c-.93-1.85-2.46-3.92-4.02-5.16-1.34-1.02-3.82-2.39-7.72-2.39-6.82,0-11.57,4.24-11.57,10.65,0,2.68.73,4.22,2.58,5.97,2.07,2.07,4.65,3.22,7.24,4.34l6.6,2.9c4.02,1.73,7.72,3.61,10.62,6.51,3.51,3.51,4.95,7.5,4.95,12.47,0,12.67-9.38,21.15-21.78,21.15-4.53,0-10.21-.93-14.96-5.58-3.39-3.29-5.46-8.04-6.38-12.16l7.43-2.07c.51,3.61,2.17,6.7,4.12,8.77,3,3,6.41,3.82,9.92,3.82,9.38,0,13.81-6.72,13.81-13.64,0-3.07-.93-5.77-3.41-8.04-1.95-1.85-4.63-3.09-8.23-4.73l-6.19-2.9c-2.7-1.24-6.09-2.68-9.18-5.68-3-2.87-4.75-6.09-4.75-11.26,0-10.62,8.14-17.73,19.29-17.73,4.21,0,7.62.83,11.04,3.09,2.78,1.85,5.17,4.65,6.7,7.62l-6.09,4.04Z"/>
    <path class="cls-2" d="M1262.76,709.63h14.03c6.92,0,16.71.73,25.38,8.06,6.29,5.26,11.77,14.01,11.77,26.41,0,14.42-7.14,22.17-12.08,26.41-6.29,5.36-12.89,7.94-25.17,7.94h-13.94v-68.82ZM1270.41,771.22h6.7c5.46,0,13.01-.61,19.71-6.19,5.14-4.34,9.28-11.13,9.28-20.93,0-16.52-11.55-27.24-28.99-27.24h-6.7v54.35Z"/>
    <polygon class="cls-2" points="1358.6 716.87 1330.54 716.87 1330.54 737.28 1357.78 737.28 1357.78 744.49 1330.54 744.49 1330.54 771.22 1358.6 771.22 1358.6 778.45 1322.91 778.45 1322.91 709.63 1358.6 709.63 1358.6 716.87"/>
    <path class="cls-2" d="M1398.29,723.25c-.93-1.85-2.46-3.92-4.02-5.16-1.34-1.02-3.82-2.36-7.72-2.36-6.82,0-11.57,4.22-11.57,10.62,0,2.68.73,4.24,2.58,5.99,2.07,2.07,4.65,3.19,7.24,4.31l6.6,2.9c4.02,1.75,7.72,3.61,10.62,6.51,3.51,3.51,4.95,7.53,4.95,12.47,0,12.69-9.38,21.15-21.78,21.15-4.53,0-10.21-.93-14.96-5.55-3.39-3.31-5.46-8.04-6.38-12.18l7.43-2.07c.51,3.63,2.17,6.7,4.12,8.77,3,3,6.41,3.82,9.92,3.82,9.38,0,13.81-6.7,13.81-13.62,0-3.09-.93-5.77-3.41-8.04-1.95-1.88-4.63-3.09-8.23-4.75l-6.19-2.9c-2.7-1.24-6.09-2.68-9.18-5.68-3-2.87-4.75-6.09-4.75-11.23,0-10.62,8.14-17.76,19.29-17.76,4.21,0,7.62.83,11.04,3.12,2.78,1.85,5.17,4.63,6.7,7.62l-6.09,4.02Z"/>
    <rect class="cls-2" x="1415.9" y="709.63" width="7.65" height="68.82"/>
    <path class="cls-2" d="M1471.64,743.89h28.67v1.66c0,7.62-2.26,15.88-6.6,21.76-2.07,2.78-9.79,12.38-25.58,12.38-20.42,0-35.69-15.57-35.69-35.57s15.37-35.62,35.91-35.62c6.6,0,14.32,1.66,21.02,6.82,3.09,2.39,5.99,5.46,7.94,8.14l-5.68,5.16c-1.95-2.78-4.21-5.26-6.48-7.11-3.31-2.68-8.45-5.77-16.71-5.77-16.61,0-28.16,12.47-28.16,28.48,0,18.76,14.96,28.26,27.94,28.26,9.19,0,17.13-4.65,21.05-11.55,1.24-2.17,2.58-5.48,2.78-9.79h-20.42v-7.24Z"/>
    <polygon class="cls-2" points="1509.31 778.46 1509.31 706.73 1562.95 762.96 1562.95 709.63 1570.6 709.63 1570.6 781.53 1516.96 725.32 1516.96 778.46 1509.31 778.46"/>
    <polygon class="cls-2" points="1618.99 716.87 1590.95 716.87 1590.95 737.28 1618.18 737.28 1618.18 744.49 1590.95 744.49 1590.95 771.22 1618.99 771.22 1618.99 778.45 1583.29 778.45 1583.29 709.63 1618.99 709.63 1618.99 716.87"/>
    <path class="cls-2" d="M1638.99,709.63c4.65,0,11.55.32,16.71,3.83,4.02,2.68,7.53,7.94,7.53,15.25,0,10.52-6.92,18.27-17.32,19l21.85,30.74h-9.28l-20.93-30.14h-1.97v30.14h-7.62v-68.82h11.04ZM1635.58,741.52h4.85c9.5,0,15.18-4.56,15.18-12.59,0-3.83-1.15-7.63-5.48-10.11-3.09-1.75-6.6-1.95-9.89-1.95h-4.65v24.65Z"/>
    <path class="cls-2" d="M1705.4,723.25c-.93-1.85-2.46-3.92-4.02-5.16-1.34-1.02-3.82-2.36-7.72-2.36-6.82,0-11.57,4.22-11.57,10.62,0,2.68.73,4.24,2.58,5.99,2.07,2.07,4.65,3.19,7.24,4.31l6.6,2.9c4.02,1.75,7.72,3.61,10.62,6.51,3.51,3.51,4.95,7.53,4.95,12.47,0,12.69-9.38,21.15-21.78,21.15-4.53,0-10.21-.93-14.96-5.55-3.39-3.31-5.46-8.04-6.38-12.18l7.43-2.07c.51,3.63,2.17,6.7,4.12,8.77,3,3,6.41,3.82,9.92,3.82,9.38,0,13.81-6.7,13.81-13.62,0-3.09-.93-5.77-3.41-8.04-1.95-1.88-4.63-3.09-8.23-4.75l-6.19-2.9c-2.7-1.24-6.09-2.68-9.18-5.68-3-2.87-4.75-6.09-4.75-11.23,0-10.62,8.14-17.76,19.29-17.76,4.21,0,7.62.83,11.04,3.12,2.78,1.85,5.17,4.63,6.7,7.62l-6.09,4.02Z"/>
    <path class="cls-2" d="M433.21,743.19c0,7.34-5.95,13.29-13.29,13.29s-13.29-5.95-13.29-13.29,5.95-13.29,13.29-13.29,13.29,5.95,13.29,13.29"/>
    <path class="cls-2" d="M1208.27,743.19c0,7.34-5.95,13.29-13.29,13.29s-13.29-5.95-13.29-13.29,5.95-13.29,13.29-13.29,13.29,5.95,13.29,13.29"/>
  </g>
</svg>